<svg xmlns="http://www.w3.org/2000/svg" viewBox="0 0 160 160" shape-rendering="crispEdges">
  <!-- Ground -->
  <rect x="0" y="144" width="160" height="16" fill="#8b7355"/>
  <!-- Main building -->
  <rect x="16" y="56" width="128" height="88" fill="#fbbf24"/>
  <rect x="16" y="56" width="128" height="8" fill="#fcd34d"/>
  <!-- Shadow -->
  <rect x="136" y="56" width="8" height="88" fill="#d97706"/>
  <!-- Roof -->
  <rect x="8" y="40" width="144" height="16" fill="#8b6914"/>
  <rect x="16" y="32" width="128" height="8" fill="#8b6914"/>
  <rect x="24" y="24" width="112" height="8" fill="#92400e"/>
  <!-- Chimney -->
  <rect x="112" y="8" width="16" height="24" fill="#78350f"/>
  <!-- Smoke puffs -->
  <rect x="112" y="0" width="8" height="8" fill="#d6d3d1" opacity="0.6"/>
  <rect x="120" y="0" width="8" height="8" fill="#e7e5e4" opacity="0.4"/>
  <rect x="104" y="0" width="8" height="8" fill="#e7e5e4" opacity="0.3"/>
  <!-- Windows with books -->
  <rect x="28" y="68" width="24" height="20" fill="#fde68a"/>
  <rect x="68" y="68" width="24" height="20" fill="#fde68a"/>
  <rect x="108" y="68" width="24" height="20" fill="#fde68a"/>
  <!-- Books in windows -->
  <rect x="30" y="78" width="6" height="10" fill="#ef4444"/>
  <rect x="36" y="76" width="6" height="12" fill="#3b82f6"/>
  <rect x="42" y="80" width="6" height="8" fill="#22c55e"/>
  <rect x="70" y="78" width="6" height="10" fill="#8b5cf6"/>
  <rect x="76" y="76" width="6" height="12" fill="#f97316"/>
  <rect x="82" y="80" width="6" height="8" fill="#ec4899"/>
  <rect x="110" y="78" width="6" height="10" fill="#14b8a6"/>
  <rect x="116" y="76" width="6" height="12" fill="#eab308"/>
  <rect x="122" y="80" width="6" height="8" fill="#ef4444"/>
  <!-- Door -->
  <rect x="64" y="108" width="32" height="36" fill="#78350f"/>
  <rect x="78" y="108" width="4" height="36" fill="#92400e"/>
  <!-- Door knob -->
  <rect x="88" y="124" width="4" height="4" fill="#fbbf24"/>
  <!-- Sign above door -->
  <rect x="56" y="96" width="48" height="10" fill="#78350f"/>
  <rect x="60" y="98" width="8" height="6" fill="#fde68a"/>
  <rect x="72" y="98" width="8" height="6" fill="#fde68a"/>
  <rect x="84" y="98" width="8" height="6" fill="#fde68a"/>
</svg>
